<svg width="499" height="318" viewBox="0 0 499 318" fill="none" xmlns="http://www.w3.org/2000/svg">
<g filter="url(#filter0_d_3019_2707)">
<circle cx="256" cy="158" r="112" fill="white"/>
</g>
<path d="M106.983 103.509C63.0171 45.6014 27.608 50.9978 15.762 51.2553H11V8C70.0494 14.6669 103.463 24.6671 134.416 70.3035C174.894 117.13 220.291 105.093 237.355 103.638L217.355 145.703C171.47 150.533 142.879 139.359 114.933 112.66C112.014 109.872 109.424 106.725 106.983 103.509Z" fill="url(#paint0_radial_3019_2707)"/>
<path d="M11.1115 162.492V108.522C49.5253 105.665 104.368 116.062 126.988 121.618C154.925 127.65 187.043 126.512 199.609 125.189L212.308 141.857L202.387 179.556C174.132 183.683 117.067 174.133 92.0663 168.841C73.3355 163.762 30.2919 162.492 11.1115 162.492Z" fill="url(#paint1_radial_3019_2707)" fill-opacity="0.6"/>
<path d="M8.73047 206.1V189.433C22.6198 193.798 53.3078 192.476 86.1138 178.718C110.718 168.4 173.153 158.876 190.482 159.67L215.483 161.654L194.847 176.734C140.084 174.75 133.337 167.674 83.7327 191.417C62.1321 201.755 24.8685 206.761 8.73047 206.1Z" fill="url(#paint2_radial_3019_2707)"/>
<path d="M10.6246 257.21L10.6246 231.813C25.7047 237.368 85.2292 227.447 105.468 208.795C134.087 182.421 176.772 165.928 193.962 163.603L208.447 163.603L200.313 180.224C118.61 196.72 116.741 215.542 105.468 225.463C87.49 241.284 56.6569 257.21 10.6246 257.21Z" fill="url(#paint3_linear_3019_2707)" fill-opacity="0.6"/>
<path d="M11 317.084V289.702C76.7163 300.178 110.342 249.621 118.94 223.033C137.988 186.524 176.084 177.132 192.752 177L221.721 180.968L214.672 202.191C159.512 206.556 152.274 223.43 120.924 273.035C95.8438 312.718 37.1913 318.936 11 317.084Z" fill="url(#paint4_angular_3019_2707)" fill-opacity="0.6"/>
<path d="M398.996 97.3544C371.614 113.625 307.194 125.133 291.453 125.927C289.866 133.229 301.638 142.726 299.787 147.356C297.564 154.658 361.899 128.84 392.588 116.273C431.636 95.0029 478.363 95.1058 498.602 96.5609V81.0842C459.236 76.9571 418.044 87.4336 398.996 97.3544Z" fill="url(#paint5_linear_3019_2707)"/>
<path d="M390.209 39.284C358.462 78.174 340.5 110 311.5 110L284.5 105.159L298.143 148.414C357.192 141.747 399.204 98.8096 412.829 78.174C443.782 39.284 481.879 41.4004 498.943 42.8555V0.790738C450.687 -4.28878 410.051 15.8706 390.209 39.284Z" fill="url(#paint6_angular_3019_2707)" fill-opacity="0.6"/>
<path d="M394.971 198.794C344.573 179.746 315.604 163.872 295.762 165.063L300.524 178.555C320.207 175.063 360.05 201.704 377.511 207.525C429.099 226.176 469.445 229.747 498.149 230.144V212.287C463.862 216.096 415.078 204.879 394.971 198.794Z" fill="url(#paint7_radial_3019_2707)" fill-opacity="0.6"/>
<path d="M384.357 161.067C349.917 150.171 327.83 145.498 299.73 143.655L301.318 157.148C321.001 153.655 360.843 164.423 378.304 170.243C429.893 188.895 470.238 176.593 498.943 176.99V146.433C466.24 150.067 441.047 168.43 397.124 163.893C392.786 163.445 388.516 162.383 384.357 161.067Z" fill="url(#paint8_radial_3019_2707)" fill-opacity="0.6"/>
<path d="M392.59 231.781C362.748 183.208 316.662 136.672 296.953 137.334C303.937 164.001 295.894 183.367 291 189.716C318.027 189.425 346.007 210.838 356.737 224.305C358.536 226.562 360.146 228.937 361.95 231.19C369.037 240.043 388.278 263.871 397.352 273.052C428.464 304.481 477.778 309.693 498.546 308.37V270.274C453.465 277.576 406.48 254.533 392.59 231.781Z" fill="#98CECE"/>
<g filter="url(#filter1_d_3019_2707)">
<circle cx="256.097" cy="158.097" r="63.0971" fill="white"/>
</g>
<g clip-path="url(#clip0_3019_2707)">
<path d="M245.464 162.93C244.702 161.023 244.45 158.951 244.733 156.917C245.015 154.883 245.822 152.958 247.075 151.33C246.58 151.001 246.188 150.537 245.947 149.993C244.414 151.919 243.43 154.223 243.098 156.662C242.766 159.1 243.099 161.584 244.062 163.849C244.474 163.466 244.948 163.155 245.464 162.93V162.93ZM251.57 145.837C251.985 146.258 252.323 146.749 252.569 147.287C253.832 146.839 255.16 146.605 256.5 146.594C259.004 146.582 261.447 147.366 263.476 148.833C263.692 148.405 263.993 148.027 264.362 147.722V147.722L264.556 147.577C262.713 146.216 260.556 145.344 258.286 145.039C256.016 144.735 253.706 145.009 251.57 145.837V145.837ZM267.536 154.085C268.298 155.99 268.55 158.06 268.268 160.091C267.985 162.123 267.178 164.045 265.925 165.669C266.186 165.849 266.42 166.066 266.618 166.314C266.793 166.525 266.939 166.758 267.053 167.007C268.586 165.081 269.57 162.777 269.902 160.338C270.234 157.899 269.901 155.416 268.938 153.151C268.526 153.539 268.052 153.855 267.536 154.085V154.085ZM260.431 169.778C259.166 170.21 257.837 170.423 256.5 170.406V170.406C253.996 170.419 251.553 169.635 249.524 168.167C249.313 168.597 249.01 168.976 248.638 169.278V169.278L248.445 169.423C250.294 170.789 252.458 171.666 254.736 171.973C257.015 172.28 259.334 172.007 261.478 171.179C261.05 170.777 260.696 170.302 260.431 169.778Z" fill="#0078D4"/>
<path d="M250.345 147.013C250.806 147.488 251.117 148.088 251.238 148.738C251.36 149.388 251.288 150.06 251.03 150.67C250.772 151.279 250.34 151.799 249.789 152.164C249.237 152.53 248.59 152.725 247.929 152.725C247.267 152.725 246.62 152.53 246.069 152.164C245.517 151.799 245.085 151.279 244.828 150.67C244.57 150.06 244.497 149.388 244.619 148.738C244.741 148.088 245.051 147.488 245.512 147.013C245.826 146.689 246.202 146.432 246.617 146.256C247.032 146.081 247.478 145.99 247.929 145.99C248.379 145.99 248.826 146.081 249.241 146.256C249.656 146.432 250.032 146.689 250.345 147.013V147.013Z" fill="#32BEDD"/>
<path d="M249.121 150.557C249.28 150.407 249.406 150.226 249.492 150.025C249.578 149.824 249.623 149.608 249.623 149.389C249.623 149.171 249.578 148.954 249.492 148.754C249.406 148.553 249.28 148.372 249.121 148.221C248.971 148.07 248.793 147.95 248.597 147.868C248.401 147.787 248.19 147.745 247.977 147.745C247.765 147.745 247.554 147.787 247.358 147.868C247.161 147.95 246.983 148.07 246.833 148.221C246.675 148.372 246.549 148.553 246.463 148.754C246.376 148.954 246.332 149.171 246.332 149.389C246.332 149.608 246.376 149.824 246.463 150.025C246.549 150.226 246.675 150.407 246.833 150.557C246.984 150.713 247.164 150.837 247.363 150.922C247.563 151.007 247.777 151.05 247.993 151.05C248.21 151.05 248.424 151.007 248.624 150.922C248.823 150.837 249.003 150.713 249.153 150.557" fill="white"/>
<path d="M263.234 147.013C263.709 146.552 264.309 146.241 264.96 146.12C265.61 145.998 266.282 146.07 266.891 146.328C267.501 146.586 268.02 147.018 268.386 147.569C268.752 148.121 268.946 148.768 268.946 149.429C268.946 150.091 268.752 150.738 268.386 151.289C268.02 151.841 267.501 152.273 266.891 152.53C266.282 152.788 265.61 152.861 264.96 152.739C264.309 152.617 263.709 152.307 263.234 151.846C262.606 151.215 262.253 150.36 262.253 149.47C262.253 148.579 262.606 147.724 263.234 147.093V147.013Z" fill="#32BEDD"/>
<path d="M266.779 148.221C266.551 148.004 266.263 147.859 265.953 147.803C265.643 147.748 265.323 147.784 265.034 147.908C264.744 148.033 264.497 148.239 264.324 148.502C264.151 148.766 264.058 149.074 264.058 149.389C264.058 149.704 264.151 150.012 264.324 150.275C264.497 150.539 264.744 150.745 265.034 150.869C265.323 150.994 265.643 151.03 265.953 150.975C266.263 150.919 266.551 150.774 266.779 150.557V150.557C266.937 150.406 267.064 150.225 267.15 150.025C267.236 149.824 267.28 149.607 267.28 149.389C267.28 149.17 267.236 148.954 267.15 148.753C267.064 148.553 266.937 148.371 266.779 148.221" fill="white"/>
<path d="M262.654 169.987C262.194 169.512 261.883 168.912 261.761 168.262C261.64 167.611 261.712 166.94 261.97 166.33C262.228 165.721 262.659 165.201 263.211 164.836C263.762 164.47 264.409 164.275 265.071 164.275C265.733 164.275 266.38 164.47 266.931 164.836C267.483 165.201 267.914 165.721 268.172 166.33C268.43 166.94 268.503 167.611 268.381 168.262C268.259 168.912 267.948 169.512 267.488 169.987C267.174 170.311 266.798 170.568 266.383 170.743C265.968 170.919 265.522 171.01 265.071 171.01C264.62 171.01 264.174 170.919 263.759 170.743C263.344 170.568 262.968 170.311 262.654 169.987V169.987Z" fill="#32BEDD"/>
<path d="M263.879 166.443C263.72 166.593 263.594 166.774 263.508 166.975C263.422 167.176 263.377 167.392 263.377 167.611C263.377 167.829 263.422 168.046 263.508 168.246C263.594 168.447 263.72 168.628 263.879 168.779C264.029 168.935 264.209 169.059 264.409 169.144C264.608 169.228 264.822 169.272 265.039 169.272C265.255 169.272 265.47 169.228 265.669 169.144C265.868 169.059 266.048 168.935 266.199 168.779C266.357 168.628 266.483 168.447 266.57 168.246C266.656 168.046 266.7 167.829 266.7 167.611C266.7 167.392 266.656 167.176 266.57 166.975C266.483 166.774 266.357 166.593 266.199 166.443C266.048 166.287 265.868 166.163 265.669 166.078C265.47 165.993 265.255 165.95 265.039 165.95C264.822 165.95 264.608 165.993 264.409 166.078C264.209 166.163 264.029 166.287 263.879 166.443Z" fill="white"/>
<path d="M249.766 169.987C249.295 170.459 248.695 170.781 248.042 170.912C247.388 171.043 246.711 170.977 246.095 170.723C245.479 170.468 244.952 170.037 244.581 169.483C244.211 168.929 244.013 168.277 244.013 167.611C244.013 166.944 244.211 166.293 244.581 165.739C244.952 165.185 245.479 164.753 246.095 164.499C246.711 164.244 247.388 164.178 248.042 164.309C248.695 164.44 249.295 164.762 249.766 165.234C250.394 165.865 250.747 166.72 250.747 167.611C250.747 168.502 250.394 169.356 249.766 169.987Z" fill="#32BEDD"/>
<path d="M246.221 168.779C246.45 168.996 246.737 169.141 247.047 169.197C247.357 169.252 247.677 169.215 247.966 169.091C248.256 168.967 248.503 168.76 248.676 168.497C248.849 168.234 248.942 167.926 248.942 167.611C248.942 167.296 248.849 166.987 248.676 166.724C248.503 166.461 248.256 166.255 247.966 166.13C247.677 166.006 247.357 165.969 247.047 166.025C246.737 166.08 246.45 166.226 246.221 166.443C246.063 166.593 245.936 166.774 245.85 166.975C245.764 167.176 245.72 167.392 245.72 167.611C245.72 167.829 245.764 168.045 245.85 168.246C245.936 168.447 246.063 168.628 246.221 168.779" fill="white"/>
<path d="M262.155 164.815C262.48 164.815 262.791 164.686 263.021 164.457C263.251 164.227 263.38 163.916 263.38 163.591V163.446C262.945 159.611 260.705 156.47 256.5 156.47C252.295 156.47 250.056 159.128 249.637 163.462C249.619 163.623 249.633 163.786 249.679 163.941C249.724 164.097 249.8 164.242 249.902 164.367C250.004 164.493 250.13 164.598 250.272 164.675C250.415 164.751 250.571 164.799 250.732 164.815H262.155Z" fill="url(#paint9_linear_3019_2707)"/>
<path opacity="0.8" d="M256.5 157.388C255.758 157.388 255.031 157.176 254.406 156.776L256.5 162.173L258.546 156.889C257.925 157.244 257.216 157.417 256.5 157.388Z" fill="white"/>
<path d="M256.516 157.388C258.643 157.388 260.367 155.664 260.367 153.538C260.367 151.411 258.643 149.687 256.516 149.687C254.39 149.687 252.666 151.411 252.666 153.538C252.666 155.664 254.39 157.388 256.516 157.388Z" fill="url(#paint10_linear_3019_2707)"/>
</g>
<circle cx="256.5" cy="158.5" r="46.1032" stroke="#A5ABE7" stroke-width="0.793675" stroke-linejoin="round" stroke-dasharray="1.59 5.56"/>
<path d="M251 105C249.895 105 249 105.895 249 107V112.126C249.32 112.043 249.655 112 250 112V107C250 106.448 250.448 106 251 106H255V109.5C255 110.328 255.672 111 256.5 111H260V118.999C260 119.552 259.552 119.999 259 119.999H253V120.999H259C260.105 120.999 261 120.104 261 118.999V110.414C261 110.016 260.842 109.635 260.561 109.353L256.646 105.439C256.365 105.158 255.984 105 255.586 105H251ZM259.793 110H256.5C256.224 110 256 109.776 256 109.5V106.207L259.793 110ZM253 116C253 117.656 251.657 118.999 250 118.999C248.343 118.999 247 117.656 247 116C247 114.343 248.343 113 250 113C251.657 113 253 114.343 253 116ZM252 119.464C251.412 119.805 250.729 119.999 250 119.999C249.271 119.999 248.588 119.805 248 119.464V121.75C248 121.944 248.211 122.064 248.378 121.964L250 120.999L251.622 121.964C251.789 122.064 252 121.944 252 121.75V119.464Z" fill="#106EBE"/>
<path d="M300.44 159.439C300.712 159.168 301.086 159 301.5 159H306.5C307.328 159 308 159.672 308 160.5V164.5C308 165.328 307.328 166 306.5 166H303.121L302.561 165.44C302.843 164.853 303 164.195 303 163.5V165H306.5C306.776 165 307 164.776 307 164.5V163H303V163.5C303 162.428 302.625 161.444 302 160.671V160H301.5C301.45 160 301.401 160.007 301.355 160.021C301.076 159.792 300.769 159.596 300.44 159.439ZM307 160.5C307 160.224 306.776 160 306.5 160H303V162H307V160.5ZM299 159.027C298.836 159.009 298.669 159 298.5 159C298.331 159 298.164 159.009 298 159.027V154C298 152.895 298.895 152 300 152H304.586C304.984 152 305.365 152.158 305.646 152.439L309.561 156.354C309.842 156.635 310 157.016 310 157.414V166C310 167.105 309.105 168 308 168H304.915C304.842 167.795 304.724 167.603 304.561 167.439L304.121 167H308C308.552 167 309 166.552 309 166V158H305.5C304.672 158 304 157.328 304 156.5V153H300C299.448 153 299 153.448 299 154V159.027ZM305.5 157H308.793L305 153.207V156.5C305 156.776 305.224 157 305.5 157ZM301.303 165.596C301.741 165.012 302 164.286 302 163.5C302 161.567 300.433 160 298.5 160C296.567 160 295 161.567 295 163.5C295 165.433 296.567 167 298.5 167C299.286 167 300.012 166.741 300.596 166.303L303.146 168.854C303.342 169.049 303.658 169.049 303.854 168.854C304.049 168.658 304.049 168.342 303.854 168.147L301.303 165.596ZM301 163.5C301 164.881 299.881 166 298.5 166C297.119 166 296 164.881 296 163.5C296 162.119 297.119 161 298.5 161C299.881 161 301 162.119 301 163.5Z" fill="#106EBE"/>
<path d="M208 155C208 152.791 209.791 151 212 151C214.209 151 216 152.791 216 155C216 157.209 214.209 159 212 159C209.791 159 208 157.209 208 155ZM212 152C210.343 152 209 153.343 209 155C209 156.657 210.343 158 212 158C213.657 158 215 156.657 215 155C215 153.343 213.657 152 212 152ZM205 162C205 160.887 205.903 160 207.009 160L215.671 160C215.56 160.313 215.5 160.649 215.5 161H207.009C206.448 161 206 161.447 206 162C206 163.309 206.622 164.284 207.673 164.953C208.743 165.636 210.265 166 212 166C212.708 166 213.38 165.939 214 165.822V166.838C213.362 166.947 212.69 167 212 167C210.145 167 208.417 166.614 207.135 165.797C205.833 164.966 205 163.691 205 162ZM216.5 162V161C216.5 159.895 217.395 159 218.5 159C219.605 159 220.5 159.895 220.5 161V162H221C221.552 162 222 162.448 222 163V167C222 167.552 221.552 168 221 168H216C215.448 168 215 167.552 215 167V163C215 162.448 215.448 162 216 162H216.5ZM217.5 161V162H219.5V161C219.5 160.448 219.052 160 218.5 160C217.948 160 217.5 160.448 217.5 161ZM219.25 165C219.25 164.586 218.914 164.25 218.5 164.25C218.086 164.25 217.75 164.586 217.75 165C217.75 165.414 218.086 165.75 218.5 165.75C218.914 165.75 219.25 165.414 219.25 165Z" fill="#106EBE"/>
<path d="M293.44 130.628L288.58 129.687L288.772 128.7L291.954 129.322L292.783 128.762L293.394 125.577L294.381 125.768L293.44 130.628Z" fill="#A5ABE6"/>
<path d="M287.455 192.376L287.693 187.432L288.697 187.481L288.536 190.72L289.208 191.46L292.447 191.611L292.399 192.615L287.455 192.376Z" fill="#A5ABE6"/>
<path d="M221.173 188.521L226.12 188.7L226.083 189.705L222.843 189.582L222.111 190.263L221.999 193.504L220.994 193.467L221.173 188.521Z" fill="#A5ABE6"/>
<path d="M225.996 124.086L225.914 129.035L224.908 129.019L224.968 125.776L224.273 125.058L221.03 125.009L221.047 124.004L225.996 124.086Z" fill="#A5ABE6"/>
<defs>
<filter id="filter0_d_3019_2707" x="113.84" y="29.3328" width="284.319" height="284.319" filterUnits="userSpaceOnUse" color-interpolation-filters="sRGB">
<feFlood flood-opacity="0" result="BackgroundImageFix"/>
<feColorMatrix in="SourceAlpha" type="matrix" values="0 0 0 0 0 0 0 0 0 0 0 0 0 0 0 0 0 0 127 0" result="hardAlpha"/>
<feMorphology radius="2.38102" operator="dilate" in="SourceAlpha" result="effect1_dropShadow_3019_2707"/>
<feOffset dy="13.4925"/>
<feGaussianBlur stdDeviation="13.8893"/>
<feComposite in2="hardAlpha" operator="out"/>
<feColorMatrix type="matrix" values="0 0 0 0 0.636568 0 0 0 0 0.608594 0 0 0 0 0.7125 0 0 0 0.8 0"/>
<feBlend mode="normal" in2="BackgroundImageFix" result="effect1_dropShadow_3019_2707"/>
<feBlend mode="normal" in="SourceGraphic" in2="effect1_dropShadow_3019_2707" result="shape"/>
</filter>
<filter id="filter1_d_3019_2707" x="176.333" y="91.8253" width="159.529" height="159.529" filterUnits="userSpaceOnUse" color-interpolation-filters="sRGB">
<feFlood flood-opacity="0" result="BackgroundImageFix"/>
<feColorMatrix in="SourceAlpha" type="matrix" values="0 0 0 0 0 0 0 0 0 0 0 0 0 0 0 0 0 0 127 0" result="hardAlpha"/>
<feMorphology radius="7.14307" operator="erode" in="SourceAlpha" result="effect1_dropShadow_3019_2707"/>
<feOffset dy="13.4925"/>
<feGaussianBlur stdDeviation="11.9051"/>
<feComposite in2="hardAlpha" operator="out"/>
<feColorMatrix type="matrix" values="0 0 0 0 0.636568 0 0 0 0 0.608594 0 0 0 0 0.7125 0 0 0 1 0"/>
<feBlend mode="normal" in2="BackgroundImageFix" result="effect1_dropShadow_3019_2707"/>
<feBlend mode="normal" in="SourceGraphic" in2="effect1_dropShadow_3019_2707" result="shape"/>
</filter>
<radialGradient id="paint0_radial_3019_2707" cx="0" cy="0" r="1" gradientUnits="userSpaceOnUse" gradientTransform="translate(258.627 -33.6678) rotate(-177.816) scale(229.142 383.965)">
<stop offset="0.0625" stop-color="#8764B8"/>
<stop offset="0.429771" stop-color="#768DF1"/>
<stop offset="0.744792" stop-color="#BCC7F8" stop-opacity="0.737683"/>
<stop offset="1" stop-color="#E1E6FC" stop-opacity="0.6"/>
<stop offset="1" stop-color="#D1D9FA" stop-opacity="0.659617"/>
</radialGradient>
<radialGradient id="paint1_radial_3019_2707" cx="0" cy="0" r="1" gradientUnits="userSpaceOnUse" gradientTransform="translate(167.069 100.495) rotate(-26.5162) scale(207.996 576.988)">
<stop stop-color="#9372C0"/>
<stop offset="0.0001" stop-color="#D7C9EA"/>
<stop offset="0.25" stop-color="#C7D1FA"/>
<stop offset="1" stop-color="#8764B8"/>
</radialGradient>
<radialGradient id="paint2_radial_3019_2707" cx="0" cy="0" r="1" gradientUnits="userSpaceOnUse" gradientTransform="translate(163.497 113.59) rotate(160.135) scale(181.014 804.249)">
<stop stop-color="#E1E6FC"/>
<stop stop-color="#E9E2F4" stop-opacity="0.6"/>
<stop offset="1" stop-color="#627CEF"/>
</radialGradient>
<linearGradient id="paint3_linear_3019_2707" x1="98.8125" y1="207.43" x2="115.147" y2="241.211" gradientUnits="userSpaceOnUse">
<stop stop-color="#D7C9EA"/>
<stop offset="1" stop-color="#4661D5"/>
</linearGradient>
<radialGradient id="paint4_angular_3019_2707" cx="0" cy="0" r="1" gradientUnits="userSpaceOnUse" gradientTransform="translate(87.9864 221.446) rotate(-88.2718) scale(92.1082 138.269)">
<stop stop-color="#C7D1FA"/>
<stop offset="1" stop-color="#7959A5"/>
</radialGradient>
<linearGradient id="paint5_linear_3019_2707" x1="394.954" y1="80.1611" x2="394.954" y2="148.634" gradientUnits="userSpaceOnUse">
<stop stop-color="#92CACA"/>
<stop offset="1" stop-color="#97CDCD" stop-opacity="0"/>
</linearGradient>
<radialGradient id="paint6_angular_3019_2707" cx="0" cy="0" r="1" gradientUnits="userSpaceOnUse" gradientTransform="translate(421.56 79.7643) rotate(88.1221) scale(72.6603 154.906)">
<stop stop-color="#C2E7E7"/>
<stop offset="0.55496" stop-color="#4BA9A9"/>
<stop offset="0.736878" stop-color="#005C5C"/>
<stop offset="1" stop-color="#003939"/>
</radialGradient>
<radialGradient id="paint7_radial_3019_2707" cx="0" cy="0" r="1" gradientUnits="userSpaceOnUse" gradientTransform="translate(365.209 146.349) rotate(3.34579) scale(129.192 391.924)">
<stop stop-color="#C2E7E7"/>
<stop offset="0.83149" stop-color="#0E7878"/>
</radialGradient>
<radialGradient id="paint8_radial_3019_2707" cx="0" cy="0" r="1" gradientUnits="userSpaceOnUse" gradientTransform="translate(444.576 103.575) rotate(153.59) scale(131.152 701.46)">
<stop stop-color="#C2E7E7"/>
<stop offset="0.405007" stop-color="#81C2C2"/>
<stop offset="1" stop-color="#218B8B"/>
</radialGradient>
<linearGradient id="paint9_linear_3019_2707" x1="256.5" y1="155.455" x2="256.5" y2="166.878" gradientUnits="userSpaceOnUse">
<stop stop-color="#A67AF4"/>
<stop offset="0.3" stop-color="#A478F1"/>
<stop offset="0.49" stop-color="#9C71E9"/>
<stop offset="0.65" stop-color="#8F64DA"/>
<stop offset="0.8" stop-color="#7C53C5"/>
<stop offset="0.93" stop-color="#643DAA"/>
<stop offset="1" stop-color="#552F99"/>
</linearGradient>
<linearGradient id="paint10_linear_3019_2707" x1="320.435" y1="175.178" x2="324.44" y2="224.773" gradientUnits="userSpaceOnUse">
<stop stop-color="#A67AF4"/>
<stop offset="0.3" stop-color="#A478F1"/>
<stop offset="0.49" stop-color="#9C71E9"/>
<stop offset="0.65" stop-color="#8F64DA"/>
<stop offset="0.8" stop-color="#7C53C5"/>
<stop offset="0.93" stop-color="#643DAA"/>
<stop offset="1" stop-color="#552F99"/>
</linearGradient>
<clipPath id="clip0_3019_2707">
<rect width="29" height="29" fill="white" transform="translate(242 144)"/>
</clipPath>
</defs>
</svg>
